<svg xmlns="http://www.w3.org/2000/svg" xmlns:xlink="http://www.w3.org/1999/xlink" width="500" zoomAndPan="magnify" viewBox="0 0 375 374.999991" height="500" preserveAspectRatio="xMidYMid meet" version="1.0"><defs><clipPath id="e9e395e5a9"><path d="M 20.777344 20.53125 L 354.222656 20.53125 L 354.222656 354 L 20.777344 354 Z M 20.777344 20.53125 " clip-rule="nonzero"/></clipPath><clipPath id="d52f56c820"><path d="M 187.5 20.53125 C 95.421875 20.53125 20.777344 95.285156 20.777344 187.5 C 20.777344 279.714844 95.421875 354.46875 187.5 354.46875 C 279.578125 354.46875 354.222656 279.714844 354.222656 187.5 C 354.222656 95.285156 279.578125 20.53125 187.5 20.53125 Z M 187.5 20.53125 " clip-rule="nonzero"/></clipPath><clipPath id="08d032a0d5"><path d="M 43 43 L 332 43 L 332 332 L 43 332 Z M 43 43 " clip-rule="nonzero"/></clipPath><clipPath id="7de784571f"><path d="M 187.496094 28.402344 L 347.21875 188.121094 L 188.117188 347.21875 L 28.398438 187.5 Z M 187.496094 28.402344 " clip-rule="nonzero"/></clipPath><clipPath id="5883df76b0"><path d="M 214.011719 54.917969 L 320.082031 160.988281 C 327.117188 168.019531 331.066406 177.558594 331.066406 187.503906 C 331.066406 197.449219 327.117188 206.988281 320.082031 214.019531 L 214.019531 320.085938 C 206.984375 327.121094 197.445312 331.070312 187.5 331.070312 C 177.554688 331.070312 168.015625 327.121094 160.984375 320.085938 L 54.914062 214.015625 C 47.882812 206.984375 43.929688 197.445312 43.929688 187.5 C 43.929688 177.554688 47.882812 168.015625 54.914062 160.984375 L 160.980469 54.917969 C 168.011719 47.886719 177.550781 43.933594 187.496094 43.933594 C 197.441406 43.933594 206.980469 47.886719 214.011719 54.917969 Z M 214.011719 54.917969 " clip-rule="nonzero"/></clipPath><clipPath id="97f9608b28"><path d="M 125 104.183594 L 184 104.183594 L 184 162 L 125 162 Z M 125 104.183594 " clip-rule="nonzero"/></clipPath><clipPath id="214b378054"><path d="M 191 104.183594 L 250.230469 104.183594 L 250.230469 162 L 191 162 Z M 191 104.183594 " clip-rule="nonzero"/></clipPath><clipPath id="4d00a07548"><path d="M 163 170 L 213 170 L 213 314.933594 L 163 314.933594 Z M 163 170 " clip-rule="nonzero"/></clipPath></defs><g clip-path="url(#e9e395e5a9)"><g clip-path="url(#d52f56c820)"><path fill="#ffffff" d="M 20.777344 20.53125 L 354.222656 20.53125 L 354.222656 353.976562 L 20.777344 353.976562 Z M 20.777344 20.53125 " fill-opacity="1" fill-rule="nonzero"/></g></g><g clip-path="url(#08d032a0d5)"><g clip-path="url(#7de784571f)"><g clip-path="url(#5883df76b0)"><path fill="#000000" d="M 187.496094 28.402344 L 346.597656 187.5 L 187.496094 346.597656 L 28.398438 187.5 Z M 187.496094 28.402344 " fill-opacity="1" fill-rule="nonzero"/></g></g></g><path fill="#ffffff" d="M 178.074219 165.871094 L 198.257812 165.871094 L 202.4375 148.0625 L 187.496094 130.253906 L 184.628906 133.667969 L 172.554688 148.0625 Z M 178.074219 165.871094 " fill-opacity="1" fill-rule="nonzero"/><g clip-path="url(#97f9608b28)"><path fill="#ffffff" d="M 136.875 104.699219 L 134.890625 108.144531 L 125.011719 125.128906 L 156.359375 161.695312 L 183.835938 128.941406 Z M 136.875 104.699219 " fill-opacity="1" fill-rule="nonzero"/></g><g clip-path="url(#214b378054)"><path fill="#ffffff" d="M 238.144531 104.699219 L 191.214844 128.941406 L 218.691406 161.695312 L 250.007812 125.128906 Z M 238.144531 104.699219 " fill-opacity="1" fill-rule="nonzero"/></g><g clip-path="url(#4d00a07548)"><path fill="#ffffff" d="M 192.40625 170.382812 L 178.074219 170.382812 L 163.953125 281.628906 L 184.628906 310.414062 L 187.496094 314.410156 L 212.378906 281.445312 L 198.257812 170.382812 Z M 192.40625 170.382812 " fill-opacity="1" fill-rule="nonzero"/></g></svg>